<svg width="256px" height="256px" viewBox="0 0 256 256" version="1.1" xmlns="http://www.w3.org/2000/svg" xmlns:xlink="http://www.w3.org/1999/xlink" xmlns:sketch="http://www.bohemiancoding.com/sketch/ns">
    <title>logo_react</title>
    <defs></defs>
    <g id="Page-1" stroke="none" stroke-width="1" fill="none" fill-rule="evenodd" >
        <g id="logo_react" >
            <g id="react"  transform="translate(58.000000, 66.000000)">
                <ellipse id="Oval" fill="#00D8FF" cx="69.8778889" cy="62.403125" rx="13.0062593" ry="13.0643229"></ellipse>
                <path d="M69.8778889,35.840625 C87.3405556,35.840625 103.562926,38.3575521 115.794519,42.5872396 C130.531852,47.6833333 139.592963,55.4083333 139.592963,62.403125 C139.592963,69.6924479 129.989741,77.8986979 114.164037,83.165625 C102.198963,87.1476563 86.4546667,89.2260417 69.8778889,89.2260417 C52.8824074,89.2260417 36.7886296,87.275 24.6915926,83.1216146 C9.38337037,77.8658854 0.162814815,69.553125 0.162814815,62.403125 C0.162814815,55.4651042 8.8142963,47.8 23.3444815,42.7114583 C35.6217037,38.4122396 52.2446296,35.840625 69.8778889,35.840625 L69.8778889,35.840625 Z" id="Shape1" stroke="#00D8FF" stroke-width="6.22222222" ></path>
                <path d="M46.8574815,49.1984375 C55.5812963,34.0036458 65.8562593,21.1453125 75.6145185,12.6151042 C87.3719259,2.3375 98.5607778,-1.68776042 104.593222,1.80651042 C110.879741,5.44791667 113.159667,17.9039062 109.795778,34.3054687 C107.252444,46.7059896 101.179556,61.4440104 92.8982963,75.8682292 C84.4078148,90.6567708 74.6853333,103.685677 65.0598148,112.136979 C52.8795556,122.831771 41.1042593,126.701823 34.9377778,123.129948 C28.9543333,119.663802 26.6658519,108.306771 29.5363704,93.1213542 C31.9617407,80.290625 38.0483704,64.5419271 46.8574815,49.1984375 L46.8574815,49.1984375 Z" id="Shape2" stroke="#00D8FF" stroke-width="6.22222222" ></path>
                <path d="M46.8795185,75.9067708 C38.1305556,60.7265625 32.1714815,45.3632813 29.6875185,32.6111979 C26.6946296,17.246875 28.8107037,5.49947917 34.8374444,1.99505208 C41.1177407,-1.65703125 52.9998519,2.57942708 65.4663333,13.6981771 C74.891963,22.1044271 84.5706296,34.7494792 92.876,49.1598958 C101.391111,63.9341146 107.773296,78.9018229 110.255704,91.4989583 C113.397148,107.439844 110.854333,119.619792 104.693815,123.202083 C98.7160741,126.678125 87.7774074,122.997917 76.1133333,112.915885 C66.2581111,104.397396 55.7142963,91.2354167 46.8795185,75.9067708 L46.8795185,75.9067708 Z" id="Shape3" stroke="#00D8FF" stroke-width="6.22222222" ></path>
            </g>
        </g>
    </g>
</svg>
